<svg xmlns="http://www.w3.org/2000/svg" width="36" height="36" viewBox="0 0 36 36">
  <g id="Group_72" data-name="Group 72" transform="translate(-269.653 -91.653)">
    <rect id="Rectangle" width="36" height="36" rx="18" transform="translate(269.653 91.653)" fill="#ed1c24"/>
    <path id="Shape" d="M13.968,15.132a1.087,1.087,0,0,1-.818-.345l-3.119-3.111a6.389,6.389,0,0,1-6.115.623,6.433,6.433,0,0,1-2.047-1.365A6.4,6.4,0,0,1,.505,8.889a6.375,6.375,0,0,1,0-4.974A6.264,6.264,0,0,1,3.915.505a6.375,6.375,0,0,1,4.974,0,6.415,6.415,0,0,1,2.047,1.364A6.446,6.446,0,0,1,12.3,3.915a6.389,6.389,0,0,1-.623,6.115L14.8,13.15a1.115,1.115,0,0,1,.337.818,1.179,1.179,0,0,1-1.164,1.164ZM6.4,2.328a3.94,3.94,0,0,0-2.878,1.2A3.94,3.94,0,0,0,2.328,6.4a3.94,3.94,0,0,0,1.2,2.878,3.941,3.941,0,0,0,2.878,1.2,3.939,3.939,0,0,0,2.879-1.2,3.94,3.94,0,0,0,1.2-2.878,3.94,3.94,0,0,0-1.2-2.878A3.941,3.941,0,0,0,6.4,2.328Z" transform="translate(279.653 101.653)" fill="#fff"/>
  </g>
</svg>
